<svg width="49" height="63" viewBox="0 0 49 63" fill="none" xmlns="http://www.w3.org/2000/svg">
<path d="M13.1514 0.970703C13.4011 0.838086 13.5355 0.832585 13.6367 0.883789C13.7378 0.935042 13.8124 1.04658 13.8535 1.32617C13.8945 1.60505 13.8945 1.99824 13.8945 2.5459V22.6211C13.8945 22.9126 13.8942 23.1472 13.9189 23.3311C13.9443 23.5194 13.9991 23.6777 14.125 23.8037C14.2509 23.9296 14.4094 23.9844 14.5977 24.0098C14.7816 24.0345 15.0169 24.0342 15.3086 24.0342H30.2002L14.4688 35.6592C14.2315 35.8345 14.0676 35.9513 13.9795 36.126C13.8915 36.3006 13.8945 36.5011 13.8945 36.7959V51.6016C13.8945 51.9245 13.8913 52.0335 13.8457 52.125C13.8 52.2164 13.715 52.2852 13.457 52.4795L1.91797 61.1709C1.47494 61.5046 1.15657 61.7441 0.90625 61.8809C0.654848 62.0182 0.519891 62.0245 0.417969 61.9736C0.316139 61.9228 0.240795 61.8114 0.199219 61.5283C0.157819 61.2461 0.157227 60.8477 0.157227 60.293V11.0303C0.157227 10.7026 0.161257 10.5924 0.208008 10.5C0.25477 10.4076 0.341426 10.3387 0.605469 10.1445L12.1445 1.66016C12.5858 1.33571 12.9024 1.10292 13.1514 0.970703Z" fill="#703ED2"/>
<path d="M13.1514 0.970703C13.4011 0.838086 13.5355 0.832585 13.6367 0.883789C13.7378 0.935042 13.8124 1.04658 13.8535 1.32617C13.8945 1.60505 13.8945 1.99824 13.8945 2.5459V22.6211C13.8945 22.9126 13.8942 23.1472 13.9189 23.3311C13.9443 23.5194 13.9991 23.6777 14.125 23.8037C14.2509 23.9296 14.4094 23.9844 14.5977 24.0098C14.7816 24.0345 15.0169 24.0342 15.3086 24.0342H30.2002L14.4688 35.6592C14.2315 35.8345 14.0676 35.9513 13.9795 36.126C13.8915 36.3006 13.8945 36.5011 13.8945 36.7959V51.6016C13.8945 51.9245 13.8913 52.0335 13.8457 52.125C13.8 52.2164 13.715 52.2852 13.457 52.4795L1.91797 61.1709C1.47494 61.5046 1.15657 61.7441 0.90625 61.8809C0.654848 62.0182 0.519891 62.0245 0.417969 61.9736C0.316139 61.9228 0.240795 61.8114 0.199219 61.5283C0.157819 61.2461 0.157227 60.8477 0.157227 60.293V11.0303C0.157227 10.7026 0.161257 10.5924 0.208008 10.5C0.25477 10.4076 0.341426 10.3387 0.605469 10.1445L12.1445 1.66016C12.5858 1.33571 12.9024 1.10292 13.1514 0.970703Z" stroke="url(#paint0_linear_593_137)" style="mix-blend-mode:color-dodge" stroke-width="0.314062"/>
<path d="M48.0928 0.908203C48.3423 0.775714 48.476 0.7702 48.5771 0.821289C48.6784 0.872493 48.7538 0.98388 48.7949 1.26367C48.8358 1.54254 48.8359 1.93578 48.8359 2.4834V51.5391C48.8359 51.862 48.8318 51.971 48.7861 52.0625C48.7405 52.1538 48.6562 52.2229 48.3984 52.417L36.8584 61.1084C36.4153 61.4421 36.097 61.6816 35.8467 61.8184C35.5955 61.9555 35.4603 61.9619 35.3584 61.9111C35.2568 61.8602 35.1812 61.7485 35.1396 61.4658C35.0982 61.1836 35.0977 60.7852 35.0977 60.2305V39.5615C35.0977 39.2699 35.098 39.0345 35.0732 38.8506C35.0479 38.6624 34.994 38.5038 34.8682 38.3779C34.7421 38.2519 34.583 38.1972 34.3945 38.1719C34.2106 38.1472 33.976 38.1475 33.6846 38.1475H19.1758L34.5176 26.9639C34.7577 26.7889 34.9234 26.6726 35.0127 26.4971C35.0796 26.3654 35.0946 26.2187 35.0977 26.0283V10.9678C35.0977 10.6403 35.1018 10.5299 35.1484 10.4375C35.1952 10.3451 35.2819 10.2762 35.5459 10.082L47.0859 1.59766C47.5273 1.27315 47.8438 1.04038 48.0928 0.908203Z" fill="#4B69FF"/>
<path d="M48.0928 0.908203C48.3423 0.775714 48.476 0.7702 48.5771 0.821289C48.6784 0.872493 48.7538 0.98388 48.7949 1.26367C48.8358 1.54254 48.8359 1.93578 48.8359 2.4834V51.5391C48.8359 51.862 48.8318 51.971 48.7861 52.0625C48.7405 52.1538 48.6562 52.2229 48.3984 52.417L36.8584 61.1084C36.4153 61.4421 36.097 61.6816 35.8467 61.8184C35.5955 61.9555 35.4603 61.9619 35.3584 61.9111C35.2568 61.8602 35.1812 61.7485 35.1396 61.4658C35.0982 61.1836 35.0977 60.7852 35.0977 60.2305V39.5615C35.0977 39.2699 35.098 39.0345 35.0732 38.8506C35.0479 38.6624 34.994 38.5038 34.8682 38.3779C34.7421 38.2519 34.583 38.1972 34.3945 38.1719C34.2106 38.1472 33.976 38.1475 33.6846 38.1475H19.1758L34.5176 26.9639C34.7577 26.7889 34.9234 26.6726 35.0127 26.4971C35.0796 26.3654 35.0946 26.2187 35.0977 26.0283V10.9678C35.0977 10.6403 35.1018 10.5299 35.1484 10.4375C35.1952 10.3451 35.2819 10.2762 35.5459 10.082L47.0859 1.59766C47.5273 1.27315 47.8438 1.04038 48.0928 0.908203Z" stroke="url(#paint1_linear_593_137)" style="mix-blend-mode:color-dodge" stroke-width="0.314062"/>
<defs>
<linearGradient id="paint0_linear_593_137" x1="15.338" y1="0.0625" x2="15.338" y2="62.8119" gradientUnits="userSpaceOnUse">
<stop stop-color="#9D9D9D"/>
<stop offset="1" stop-opacity="0"/>
</linearGradient>
<linearGradient id="paint1_linear_593_137" x1="33.8431" y1="0" x2="33.8431" y2="62.7494" gradientUnits="userSpaceOnUse">
<stop stop-color="#9D9D9D"/>
<stop offset="1" stop-opacity="0"/>
</linearGradient>
</defs>
</svg>
